<svg width="267" height="46" viewBox="0 0 267 46" fill="none" xmlns="http://www.w3.org/2000/svg">
<path d="M24.324 35L15.972 9.8H20.832L28.284 32.588H25.872L33.612 9.8H37.932L45.456 32.588H43.116L50.748 9.8H55.212L46.86 35H41.892L35.016 14.444H36.312L29.328 35H24.324ZM66.1872 35.252C64.0512 35.252 62.1792 34.832 60.5712 33.992C58.9872 33.128 57.7512 31.952 56.8632 30.464C55.9992 28.976 55.5672 27.284 55.5672 25.388C55.5672 23.468 55.9872 21.776 56.8272 20.312C57.6912 18.824 58.8672 17.66 60.3552 16.82C61.8672 15.98 63.5832 15.56 65.5032 15.56C67.3752 15.56 69.0432 15.968 70.5072 16.784C71.9712 17.6 73.1232 18.752 73.9632 20.24C74.8032 21.728 75.2232 23.48 75.2232 25.496C75.2232 25.688 75.2112 25.904 75.1872 26.144C75.1872 26.384 75.1752 26.612 75.1512 26.828H59.1312V23.84H72.7752L71.0112 24.776C71.0352 23.672 70.8072 22.7 70.3272 21.86C69.8472 21.02 69.1872 20.36 68.3472 19.88C67.5312 19.4 66.5832 19.16 65.5032 19.16C64.3992 19.16 63.4272 19.4 62.5872 19.88C61.7712 20.36 61.1232 21.032 60.6432 21.896C60.1872 22.736 59.9592 23.732 59.9592 24.884V25.604C59.9592 26.756 60.2232 27.776 60.7512 28.664C61.2792 29.552 62.0232 30.236 62.9832 30.716C63.9432 31.196 65.0472 31.436 66.2952 31.436C67.3752 31.436 68.3472 31.268 69.2112 30.932C70.0752 30.596 70.8432 30.068 71.5152 29.348L73.9272 32.12C73.0632 33.128 71.9712 33.908 70.6512 34.46C69.3552 34.988 67.8672 35.252 66.1872 35.252ZM90.8624 35V31.112L90.6104 30.284V23.48C90.6104 22.16 90.2144 21.14 89.4224 20.42C88.6304 19.676 87.4304 19.304 85.8224 19.304C84.7424 19.304 83.6744 19.472 82.6184 19.808C81.5864 20.144 80.7104 20.612 79.9904 21.212L78.2264 17.936C79.2584 17.144 80.4824 16.556 81.8984 16.172C83.3384 15.764 84.8264 15.56 86.3624 15.56C89.1464 15.56 91.2944 16.232 92.8064 17.576C94.3424 18.896 95.1104 20.948 95.1104 23.732V35H90.8624ZM84.8144 35.252C83.3744 35.252 82.1144 35.012 81.0344 34.532C79.9544 34.028 79.1144 33.344 78.5144 32.48C77.9384 31.592 77.6504 30.596 77.6504 29.492C77.6504 28.412 77.9024 27.44 78.4064 26.576C78.9344 25.712 79.7864 25.028 80.9624 24.524C82.1384 24.02 83.6984 23.768 85.6424 23.768H91.2224V26.756H85.9664C84.4304 26.756 83.3984 27.008 82.8704 27.512C82.3424 27.992 82.0784 28.592 82.0784 29.312C82.0784 30.128 82.4024 30.776 83.0504 31.256C83.6984 31.736 84.5984 31.976 85.7504 31.976C86.8544 31.976 87.8384 31.724 88.7024 31.22C89.5904 30.716 90.2264 29.972 90.6104 28.988L91.3664 31.688C90.9344 32.816 90.1544 33.692 89.0264 34.316C87.9224 34.94 86.5184 35.252 84.8144 35.252ZM108.122 35.252C106.01 35.252 104.378 34.712 103.226 33.632C102.074 32.528 101.498 30.908 101.498 28.772V11.528H105.998V28.664C105.998 29.576 106.226 30.284 106.682 30.788C107.162 31.292 107.822 31.544 108.662 31.544C109.67 31.544 110.51 31.28 111.182 30.752L112.442 33.956C111.914 34.388 111.266 34.712 110.498 34.928C109.73 35.144 108.938 35.252 108.122 35.252ZM98.3296 19.52V15.92H111.146V19.52H98.3296ZM127.051 15.56C128.587 15.56 129.955 15.86 131.155 16.46C132.379 17.06 133.339 17.984 134.035 19.232C134.731 20.456 135.079 22.04 135.079 23.984V35H130.579V24.56C130.579 22.856 130.171 21.584 129.355 20.744C128.563 19.904 127.447 19.484 126.007 19.484C124.951 19.484 124.015 19.7 123.199 20.132C122.383 20.564 121.747 21.212 121.291 22.076C120.859 22.916 120.643 23.984 120.643 25.28V35H116.143V8.288H120.643V20.96L119.671 19.376C120.343 18.152 121.315 17.216 122.587 16.568C123.883 15.896 125.371 15.56 127.051 15.56ZM149.859 35.252C147.723 35.252 145.851 34.832 144.243 33.992C142.659 33.128 141.423 31.952 140.535 30.464C139.671 28.976 139.239 27.284 139.239 25.388C139.239 23.468 139.659 21.776 140.499 20.312C141.363 18.824 142.539 17.66 144.027 16.82C145.539 15.98 147.255 15.56 149.175 15.56C151.047 15.56 152.715 15.968 154.179 16.784C155.643 17.6 156.795 18.752 157.635 20.24C158.475 21.728 158.895 23.48 158.895 25.496C158.895 25.688 158.883 25.904 158.859 26.144C158.859 26.384 158.847 26.612 158.823 26.828H142.803V23.84H156.447L154.683 24.776C154.707 23.672 154.479 22.7 153.999 21.86C153.519 21.02 152.859 20.36 152.019 19.88C151.203 19.4 150.255 19.16 149.175 19.16C148.071 19.16 147.099 19.4 146.259 19.88C145.443 20.36 144.795 21.032 144.315 21.896C143.859 22.736 143.631 23.732 143.631 24.884V25.604C143.631 26.756 143.895 27.776 144.423 28.664C144.951 29.552 145.695 30.236 146.655 30.716C147.615 31.196 148.719 31.436 149.967 31.436C151.047 31.436 152.019 31.268 152.883 30.932C153.747 30.596 154.515 30.068 155.187 29.348L157.599 32.12C156.735 33.128 155.643 33.908 154.323 34.46C153.027 34.988 151.539 35.252 149.859 35.252ZM163.218 35V15.776H167.502V21.068L166.998 19.52C167.574 18.224 168.474 17.24 169.698 16.568C170.946 15.896 172.494 15.56 174.342 15.56V19.844C174.15 19.796 173.97 19.772 173.802 19.772C173.634 19.748 173.466 19.736 173.298 19.736C171.594 19.736 170.238 20.24 169.23 21.248C168.222 22.232 167.718 23.708 167.718 25.676V35H163.218ZM185.305 35L174.289 9.8H179.365L189.193 32.588H186.277L196.213 9.8H200.893L189.913 35H185.305ZM203.296 35V15.776H207.796V35H203.296ZM205.564 12.608C204.724 12.608 204.028 12.344 203.476 11.816C202.948 11.288 202.684 10.652 202.684 9.908C202.684 9.14 202.948 8.504 203.476 8C204.028 7.472 204.724 7.208 205.564 7.208C206.404 7.208 207.088 7.46 207.616 7.964C208.168 8.444 208.444 9.056 208.444 9.8C208.444 10.592 208.18 11.264 207.652 11.816C207.124 12.344 206.428 12.608 205.564 12.608ZM219.642 35.252C218.034 35.252 216.486 35.048 214.998 34.64C213.534 34.208 212.37 33.692 211.506 33.092L213.234 29.672C214.098 30.224 215.13 30.68 216.33 31.04C217.53 31.4 218.73 31.58 219.93 31.58C221.346 31.58 222.366 31.388 222.99 31.004C223.638 30.62 223.962 30.104 223.962 29.456C223.962 28.928 223.746 28.532 223.314 28.268C222.882 27.98 222.318 27.764 221.622 27.62C220.926 27.476 220.146 27.344 219.282 27.224C218.442 27.104 217.59 26.948 216.726 26.756C215.886 26.54 215.118 26.24 214.422 25.856C213.726 25.448 213.162 24.908 212.73 24.236C212.298 23.564 212.082 22.676 212.082 21.572C212.082 20.348 212.43 19.292 213.126 18.404C213.822 17.492 214.794 16.796 216.042 16.316C217.314 15.812 218.814 15.56 220.542 15.56C221.838 15.56 223.146 15.704 224.466 15.992C225.786 16.28 226.878 16.688 227.742 17.216L226.014 20.636C225.102 20.084 224.178 19.712 223.242 19.52C222.33 19.304 221.418 19.196 220.506 19.196C219.138 19.196 218.118 19.4 217.446 19.808C216.798 20.216 216.474 20.732 216.474 21.356C216.474 21.932 216.69 22.364 217.122 22.652C217.554 22.94 218.118 23.168 218.814 23.336C219.51 23.504 220.278 23.648 221.118 23.768C221.982 23.864 222.834 24.02 223.674 24.236C224.514 24.452 225.282 24.752 225.978 25.136C226.698 25.496 227.274 26.012 227.706 26.684C228.138 27.356 228.354 28.232 228.354 29.312C228.354 30.512 227.994 31.556 227.274 32.444C226.578 33.332 225.582 34.028 224.286 34.532C222.99 35.012 221.442 35.252 219.642 35.252ZM239.465 35.252C237.353 35.252 235.721 34.712 234.569 33.632C233.417 32.528 232.841 30.908 232.841 28.772V11.528H237.341V28.664C237.341 29.576 237.569 30.284 238.025 30.788C238.505 31.292 239.165 31.544 240.005 31.544C241.013 31.544 241.853 31.28 242.525 30.752L243.785 33.956C243.257 34.388 242.609 34.712 241.841 34.928C241.073 35.144 240.281 35.252 239.465 35.252ZM229.673 19.52V15.92H242.489V19.52H229.673ZM259.331 35V31.112L259.079 30.284V23.48C259.079 22.16 258.683 21.14 257.891 20.42C257.099 19.676 255.899 19.304 254.291 19.304C253.211 19.304 252.143 19.472 251.087 19.808C250.055 20.144 249.179 20.612 248.459 21.212L246.695 17.936C247.727 17.144 248.951 16.556 250.367 16.172C251.807 15.764 253.295 15.56 254.831 15.56C257.615 15.56 259.763 16.232 261.275 17.576C262.811 18.896 263.579 20.948 263.579 23.732V35H259.331ZM253.283 35.252C251.843 35.252 250.583 35.012 249.503 34.532C248.423 34.028 247.583 33.344 246.983 32.48C246.407 31.592 246.119 30.596 246.119 29.492C246.119 28.412 246.371 27.44 246.875 26.576C247.403 25.712 248.255 25.028 249.431 24.524C250.607 24.02 252.167 23.768 254.111 23.768H259.691V26.756H254.435C252.899 26.756 251.867 27.008 251.339 27.512C250.811 27.992 250.547 28.592 250.547 29.312C250.547 30.128 250.871 30.776 251.519 31.256C252.167 31.736 253.067 31.976 254.219 31.976C255.323 31.976 256.307 31.724 257.171 31.22C258.059 30.716 258.695 29.972 259.079 28.988L259.835 31.688C259.403 32.816 258.623 33.692 257.495 34.316C256.391 34.94 254.987 35.252 253.283 35.252Z" fill="white"/>
<g clip-path="url(#clip0_17_46)">
<g clip-path="url(#clip1_17_46)">
<path d="M19.625 20.375V16.875H21.375V20.375H19.625ZM25.4437 22.7812L24.2406 21.5781L26.6906 19.0625L27.9156 20.3094L25.4437 22.7812ZM26.625 27.375V25.625H30.125V27.375H26.625ZM19.625 36.125V32.625H21.375V36.125H19.625ZM15.5562 22.7375L13.0625 20.3094L14.3094 19.0844L16.7812 21.5562L15.5562 22.7375ZM26.6687 33.9375L24.2406 31.4219L25.4219 30.2406L27.9156 32.6469L26.6687 33.9375ZM10.875 27.375V25.625H14.375V27.375H10.875ZM14.3094 33.9375L13.0844 32.6906L15.5344 30.2406L16.1687 30.8312L16.8031 31.4437L14.3094 33.9375ZM20.5 31.75C19.0417 31.75 17.8021 31.2396 16.7812 30.2187C15.7604 29.1979 15.25 27.9583 15.25 26.5C15.25 25.0417 15.7604 23.8021 16.7812 22.7812C17.8021 21.7604 19.0417 21.25 20.5 21.25C21.9583 21.25 23.1979 21.7604 24.2187 22.7812C25.2396 23.8021 25.75 25.0417 25.75 26.5C25.75 27.9583 25.2396 29.1979 24.2187 30.2187C23.1979 31.2396 21.9583 31.75 20.5 31.75Z" fill="#FFBA76"/>
</g>
<path d="M8.125 41C6.22917 41 4.60938 40.3438 3.26562 39.0312C1.92188 37.7188 1.25 36.1146 1.25 34.2188C1.25 32.5938 1.73958 31.1458 2.71875 29.875C3.69792 28.6042 4.97917 27.7917 6.5625 27.4375C7.08333 25.5208 8.125 23.9688 9.6875 22.7812C11.25 21.5938 13.0208 21 15 21C17.4375 21 19.5052 21.849 21.2031 23.5469C22.901 25.2448 23.75 27.3125 23.75 29.75C25.1875 29.9167 26.3802 30.5365 27.3281 31.6094C28.276 32.6823 28.75 33.9375 28.75 35.375C28.75 36.9375 28.2031 38.2656 27.1094 39.3594C26.0156 40.4531 24.6875 41 23.125 41H8.125Z" fill="#98A6A9"/>
</g>
<defs>
<clipPath id="clip0_17_46">
<rect width="30" height="30" fill="white" transform="translate(0 16)"/>
</clipPath>
<clipPath id="clip1_17_46">
<rect width="21" height="21" fill="white" transform="translate(10 16)"/>
</clipPath>
</defs>
</svg>
