<svg width="34" height="32" viewBox="0 0 34 32" fill="none" xmlns="http://www.w3.org/2000/svg">
<path d="M27.5883 28L18.9883 19.6C18.3058 20.1333 17.5208 20.5556 16.6335 20.8667C15.7462 21.1778 14.8021 21.3333 13.801 21.3333C11.3211 21.3333 9.22229 20.4944 7.50457 18.8167C5.78684 17.1389 4.92798 15.0889 4.92798 12.6667C4.92798 10.2444 5.78684 8.19444 7.50457 6.51667C9.22229 4.83889 11.3211 4 13.801 4C16.2809 4 18.3797 4.83889 20.0974 6.51667C21.8152 8.19444 22.674 10.2444 22.674 12.6667C22.674 13.6444 22.5148 14.5667 22.1962 15.4333C21.8777 16.3 21.4454 17.0667 20.8994 17.7333L29.4994 26.1333L27.5883 28ZM13.801 18.6667C15.5073 18.6667 16.9577 18.0833 18.1522 16.9167C19.3466 15.75 19.9439 14.3333 19.9439 12.6667C19.9439 11 19.3466 9.58333 18.1522 8.41667C16.9577 7.25 15.5073 6.66667 13.801 6.66667C12.0946 6.66667 10.6442 7.25 9.4498 8.41667C8.25536 9.58333 7.65814 11 7.65814 12.6667C7.65814 14.3333 8.25536 15.75 9.4498 16.9167C10.6442 18.0833 12.0946 18.6667 13.801 18.6667Z" fill="#06141B"/>
</svg>
